<?xml version="1.0" standalone="yes"?>
<!-- SVG graphic -->
<svg xmlns='http://www.w3.org/2000/svg' xmlns:xlink='http://www.w3.org/1999/xlink'
 version="1.1">
<rect x="0" y="0" width="6" height="200" stroke="black" stroke-width="1" fill="blue" opacity="1" tooltip="enable"><title>(0,4863)</title></rect><rect x="6" y="126.054" width="6" height="73.9461" stroke="black" stroke-width="1" fill="blue" opacity="1" tooltip="enable"><title>(0.039337,1798)</title></rect><rect x="12" y="141.929" width="6" height="58.0712" stroke="black" stroke-width="1" fill="blue" opacity="1" tooltip="enable"><title>(0.078674,1412)</title></rect><rect x="18" y="153.815" width="6" height="46.1855" stroke="black" stroke-width="1" fill="blue" opacity="1" tooltip="enable"><title>(0.118011,1123)</title></rect><rect x="24" y="159.079" width="6" height="40.9212" stroke="black" stroke-width="1" fill="blue" opacity="1" tooltip="enable"><title>(0.157348,995)</title></rect><rect x="30" y="165.947" width="6" height="34.0531" stroke="black" stroke-width="1" fill="blue" opacity="1" tooltip="enable"><title>(0.196685,828)</title></rect><rect x="36" y="169.936" width="6" height="30.0637" stroke="black" stroke-width="1" fill="blue" opacity="1" tooltip="enable"><title>(0.236022,731)</title></rect><rect x="42" y="174.501" width="6" height="25.4987" stroke="black" stroke-width="1" fill="blue" opacity="1" tooltip="enable"><title>(0.275359,620)</title></rect><rect x="48" y="180.506" width="6" height="19.4941" stroke="black" stroke-width="1" fill="blue" opacity="1" tooltip="enable"><title>(0.314696,474)</title></rect><rect x="54" y="182.439" width="6" height="17.5612" stroke="black" stroke-width="1" fill="blue" opacity="1" tooltip="enable"><title>(0.354033,427)</title></rect><rect x="60" y="185.77" width="6" height="14.2299" stroke="black" stroke-width="1" fill="blue" opacity="1" tooltip="enable"><title>(0.39337,346)</title></rect><rect x="66" y="186.716" width="6" height="13.284" stroke="black" stroke-width="1" fill="blue" opacity="1" tooltip="enable"><title>(0.432707,323)</title></rect><rect x="72" y="190.047" width="6" height="9.9527" stroke="black" stroke-width="1" fill="blue" opacity="1" tooltip="enable"><title>(0.472044,242)</title></rect><rect x="78" y="191.775" width="6" height="8.22538" stroke="black" stroke-width="1" fill="blue" opacity="1" tooltip="enable"><title>(0.511381,200)</title></rect><rect x="84" y="192.309" width="6" height="7.69073" stroke="black" stroke-width="1" fill="blue" opacity="1" tooltip="enable"><title>(0.550718,187)</title></rect><rect x="90" y="193.79" width="6" height="6.21016" stroke="black" stroke-width="1" fill="blue" opacity="1" tooltip="enable"><title>(0.590055,151)</title></rect><rect x="96" y="195.065" width="6" height="4.93523" stroke="black" stroke-width="1" fill="blue" opacity="1" tooltip="enable"><title>(0.629392,120)</title></rect><rect x="102" y="195.065" width="6" height="4.93523" stroke="black" stroke-width="1" fill="blue" opacity="1" tooltip="enable"><title>(0.668729,120)</title></rect><rect x="108" y="195.599" width="6" height="4.40058" stroke="black" stroke-width="1" fill="blue" opacity="1" tooltip="enable"><title>(0.708066,107)</title></rect><rect x="114" y="195.558" width="6" height="4.4417" stroke="black" stroke-width="1" fill="blue" opacity="1" tooltip="enable"><title>(0.747403,108)</title></rect><rect x="120" y="196.545" width="6" height="3.45466" stroke="black" stroke-width="1" fill="blue" opacity="1" tooltip="enable"><title>(0.78674,84)</title></rect><rect x="126" y="197.409" width="6" height="2.59099" stroke="black" stroke-width="1" fill="blue" opacity="1" tooltip="enable"><title>(0.826078,63)</title></rect><rect x="132" y="197.286" width="6" height="2.71437" stroke="black" stroke-width="1" fill="blue" opacity="1" tooltip="enable"><title>(0.865415,66)</title></rect><rect x="138" y="197.368" width="6" height="2.63212" stroke="black" stroke-width="1" fill="blue" opacity="1" tooltip="enable"><title>(0.904752,64)</title></rect><rect x="144" y="198.108" width="6" height="1.89184" stroke="black" stroke-width="1" fill="blue" opacity="1" tooltip="enable"><title>(0.944089,46)</title></rect><rect x="150" y="197.697" width="6" height="2.30311" stroke="black" stroke-width="1" fill="blue" opacity="1" tooltip="enable"><title>(0.983426,56)</title></rect><rect x="156" y="198.314" width="6" height="1.6862" stroke="black" stroke-width="1" fill="blue" opacity="1" tooltip="enable"><title>(1.02276,41)</title></rect><rect x="162" y="198.19" width="6" height="1.80958" stroke="black" stroke-width="1" fill="blue" opacity="1" tooltip="enable"><title>(1.0621,44)</title></rect><rect x="168" y="197.985" width="6" height="2.01522" stroke="black" stroke-width="1" fill="blue" opacity="1" tooltip="enable"><title>(1.10144,49)</title></rect><rect x="174" y="198.437" width="6" height="1.56282" stroke="black" stroke-width="1" fill="blue" opacity="1" tooltip="enable"><title>(1.14077,38)</title></rect><rect x="180" y="199.219" width="6" height="0.781411" stroke="black" stroke-width="1" fill="blue" opacity="1" tooltip="enable"><title>(1.18011,19)</title></rect><rect x="186" y="198.437" width="6" height="1.56282" stroke="black" stroke-width="1" fill="blue" opacity="1" tooltip="enable"><title>(1.21945,38)</title></rect><rect x="192" y="199.054" width="6" height="0.945918" stroke="black" stroke-width="1" fill="blue" opacity="1" tooltip="enable"><title>(1.25878,23)</title></rect><rect x="198" y="198.725" width="6" height="1.27493" stroke="black" stroke-width="1" fill="blue" opacity="1" tooltip="enable"><title>(1.29812,31)</title></rect><rect x="204" y="198.807" width="6" height="1.19268" stroke="black" stroke-width="1" fill="blue" opacity="1" tooltip="enable"><title>(1.33746,29)</title></rect><rect x="210" y="199.054" width="6" height="0.945918" stroke="black" stroke-width="1" fill="blue" opacity="1" tooltip="enable"><title>(1.3768,23)</title></rect><rect x="216" y="199.465" width="6" height="0.534649" stroke="black" stroke-width="1" fill="blue" opacity="1" tooltip="enable"><title>(1.41613,13)</title></rect><rect x="222" y="199.177" width="6" height="0.822538" stroke="black" stroke-width="1" fill="blue" opacity="1" tooltip="enable"><title>(1.45547,20)</title></rect><rect x="228" y="199.26" width="6" height="0.740284" stroke="black" stroke-width="1" fill="blue" opacity="1" tooltip="enable"><title>(1.49481,18)</title></rect><rect x="234" y="199.342" width="6" height="0.65803" stroke="black" stroke-width="1" fill="blue" opacity="1" tooltip="enable"><title>(1.53414,16)</title></rect><rect x="240" y="199.301" width="6" height="0.699157" stroke="black" stroke-width="1" fill="blue" opacity="1" tooltip="enable"><title>(1.57348,17)</title></rect><rect x="246" y="199.342" width="6" height="0.65803" stroke="black" stroke-width="1" fill="blue" opacity="1" tooltip="enable"><title>(1.61282,16)</title></rect><rect x="252" y="199.424" width="6" height="0.575776" stroke="black" stroke-width="1" fill="blue" opacity="1" tooltip="enable"><title>(1.65216,14)</title></rect><rect x="258" y="199.424" width="6" height="0.575776" stroke="black" stroke-width="1" fill="blue" opacity="1" tooltip="enable"><title>(1.69149,14)</title></rect><rect x="264" y="199.548" width="6" height="0.452396" stroke="black" stroke-width="1" fill="blue" opacity="1" tooltip="enable"><title>(1.73083,11)</title></rect><rect x="270" y="199.671" width="6" height="0.329015" stroke="black" stroke-width="1" fill="blue" opacity="1" tooltip="enable"><title>(1.77017,8)</title></rect><rect x="276" y="199.506" width="6" height="0.493523" stroke="black" stroke-width="1" fill="blue" opacity="1" tooltip="enable"><title>(1.8095,12)</title></rect><rect x="282" y="199.712" width="6" height="0.287888" stroke="black" stroke-width="1" fill="blue" opacity="1" tooltip="enable"><title>(1.84884,7)</title></rect><rect x="288" y="199.671" width="6" height="0.329015" stroke="black" stroke-width="1" fill="blue" opacity="1" tooltip="enable"><title>(1.88818,8)</title></rect><rect x="294" y="199.671" width="6" height="0.329015" stroke="black" stroke-width="1" fill="blue" opacity="1" tooltip="enable"><title>(1.92751,8)</title></rect><rect x="300" y="199.835" width="6" height="0.164508" stroke="black" stroke-width="1" fill="blue" opacity="1" tooltip="enable"><title>(1.96685,4)</title></rect><rect x="306" y="199.465" width="6" height="0.534649" stroke="black" stroke-width="1" fill="blue" opacity="1" tooltip="enable"><title>(2.00619,13)</title></rect><rect x="312" y="199.835" width="6" height="0.164508" stroke="black" stroke-width="1" fill="blue" opacity="1" tooltip="enable"><title>(2.04553,4)</title></rect><rect x="318" y="199.753" width="6" height="0.246761" stroke="black" stroke-width="1" fill="blue" opacity="1" tooltip="enable"><title>(2.08486,6)</title></rect><rect x="324" y="199.753" width="6" height="0.246761" stroke="black" stroke-width="1" fill="blue" opacity="1" tooltip="enable"><title>(2.1242,6)</title></rect><rect x="330" y="199.877" width="6" height="0.123381" stroke="black" stroke-width="1" fill="blue" opacity="1" tooltip="enable"><title>(2.16354,3)</title></rect><rect x="336" y="199.589" width="6" height="0.411269" stroke="black" stroke-width="1" fill="blue" opacity="1" tooltip="enable"><title>(2.20287,10)</title></rect><rect x="342" y="199.753" width="6" height="0.246761" stroke="black" stroke-width="1" fill="blue" opacity="1" tooltip="enable"><title>(2.24221,6)</title></rect><rect x="348" y="199.589" width="6" height="0.411269" stroke="black" stroke-width="1" fill="blue" opacity="1" tooltip="enable"><title>(2.28155,10)</title></rect><rect x="354" y="199.794" width="6" height="0.205634" stroke="black" stroke-width="1" fill="blue" opacity="1" tooltip="enable"><title>(2.32088,5)</title></rect><rect x="360" y="199.589" width="6" height="0.411269" stroke="black" stroke-width="1" fill="blue" opacity="1" tooltip="enable"><title>(2.36022,10)</title></rect><rect x="366" y="199.548" width="6" height="0.452396" stroke="black" stroke-width="1" fill="blue" opacity="1" tooltip="enable"><title>(2.39956,11)</title></rect><rect x="372" y="199.671" width="6" height="0.329015" stroke="black" stroke-width="1" fill="blue" opacity="1" tooltip="enable"><title>(2.4389,8)</title></rect><rect x="378" y="199.835" width="6" height="0.164508" stroke="black" stroke-width="1" fill="blue" opacity="1" tooltip="enable"><title>(2.47823,4)</title></rect><rect x="384" y="199.753" width="6" height="0.246761" stroke="black" stroke-width="1" fill="blue" opacity="1" tooltip="enable"><title>(2.51757,6)</title></rect><rect x="390" y="199.794" width="6" height="0.205634" stroke="black" stroke-width="1" fill="blue" opacity="1" tooltip="enable"><title>(2.55691,5)</title></rect><rect x="396" y="199.794" width="6" height="0.205634" stroke="black" stroke-width="1" fill="blue" opacity="1" tooltip="enable"><title>(2.59624,5)</title></rect><rect x="402" y="199.753" width="6" height="0.246761" stroke="black" stroke-width="1" fill="blue" opacity="1" tooltip="enable"><title>(2.63558,6)</title></rect><rect x="408" y="199.794" width="6" height="0.205634" stroke="black" stroke-width="1" fill="blue" opacity="1" tooltip="enable"><title>(2.67492,5)</title></rect><rect x="414" y="199.712" width="6" height="0.287888" stroke="black" stroke-width="1" fill="blue" opacity="1" tooltip="enable"><title>(2.71425,7)</title></rect><rect x="420" y="199.794" width="6" height="0.205634" stroke="black" stroke-width="1" fill="blue" opacity="1" tooltip="enable"><title>(2.75359,5)</title></rect><rect x="426" y="199.959" width="6" height="0.0411269" stroke="black" stroke-width="1" fill="blue" opacity="1" tooltip="enable"><title>(2.79293,1)</title></rect><rect x="432" y="199.835" width="6" height="0.164508" stroke="black" stroke-width="1" fill="blue" opacity="1" tooltip="enable"><title>(2.83227,4)</title></rect><rect x="438" y="199.918" width="6" height="0.0822538" stroke="black" stroke-width="1" fill="blue" opacity="1" tooltip="enable"><title>(2.8716,2)</title></rect><rect x="444" y="199.835" width="6" height="0.164508" stroke="black" stroke-width="1" fill="blue" opacity="1" tooltip="enable"><title>(2.91094,4)</title></rect><rect x="450" y="199.753" width="6" height="0.246761" stroke="black" stroke-width="1" fill="blue" opacity="1" tooltip="enable"><title>(2.95028,6)</title></rect><rect x="456" y="199.753" width="6" height="0.246761" stroke="black" stroke-width="1" fill="blue" opacity="1" tooltip="enable"><title>(2.98961,6)</title></rect><rect x="462" y="199.918" width="6" height="0.0822538" stroke="black" stroke-width="1" fill="blue" opacity="1" tooltip="enable"><title>(3.02895,2)</title></rect><rect x="468" y="199.712" width="6" height="0.287888" stroke="black" stroke-width="1" fill="blue" opacity="1" tooltip="enable"><title>(3.06829,7)</title></rect><rect x="474" y="199.835" width="6" height="0.164508" stroke="black" stroke-width="1" fill="blue" opacity="1" tooltip="enable"><title>(3.10763,4)</title></rect><rect x="480" y="199.918" width="6" height="0.0822538" stroke="black" stroke-width="1" fill="blue" opacity="1" tooltip="enable"><title>(3.14696,2)</title></rect><rect x="486" y="199.877" width="6" height="0.123381" stroke="black" stroke-width="1" fill="blue" opacity="1" tooltip="enable"><title>(3.1863,3)</title></rect><rect x="492" y="199.835" width="6" height="0.164508" stroke="black" stroke-width="1" fill="blue" opacity="1" tooltip="enable"><title>(3.22564,4)</title></rect><rect x="498" y="199.918" width="6" height="0.0822538" stroke="black" stroke-width="1" fill="blue" opacity="1" tooltip="enable"><title>(3.26497,2)</title></rect><rect x="504" y="199.959" width="6" height="0.0411269" stroke="black" stroke-width="1" fill="blue" opacity="1" tooltip="enable"><title>(3.30431,1)</title></rect><rect x="510" y="199.959" width="6" height="0.0411269" stroke="black" stroke-width="1" fill="blue" opacity="1" tooltip="enable"><title>(3.34365,1)</title></rect><rect x="516" y="199.877" width="6" height="0.123381" stroke="black" stroke-width="1" fill="blue" opacity="1" tooltip="enable"><title>(3.38298,3)</title></rect><rect x="522" y="199.877" width="6" height="0.123381" stroke="black" stroke-width="1" fill="blue" opacity="1" tooltip="enable"><title>(3.42232,3)</title></rect><rect x="528" y="200" width="6" height="0" stroke="black" stroke-width="1" fill="blue" opacity="1" tooltip="enable"><title>(3.46166,0)</title></rect><rect x="534" y="199.918" width="6" height="0.0822538" stroke="black" stroke-width="1" fill="blue" opacity="1" tooltip="enable"><title>(3.501,2)</title></rect><rect x="540" y="199.918" width="6" height="0.0822538" stroke="black" stroke-width="1" fill="blue" opacity="1" tooltip="enable"><title>(3.54033,2)</title></rect><rect x="546" y="199.959" width="6" height="0.0411269" stroke="black" stroke-width="1" fill="blue" opacity="1" tooltip="enable"><title>(3.57967,1)</title></rect><rect x="552" y="200" width="6" height="0" stroke="black" stroke-width="1" fill="blue" opacity="1" tooltip="enable"><title>(3.61901,0)</title></rect><rect x="558" y="199.959" width="6" height="0.0411269" stroke="black" stroke-width="1" fill="blue" opacity="1" tooltip="enable"><title>(3.65834,1)</title></rect><rect x="564" y="199.959" width="6" height="0.0411269" stroke="black" stroke-width="1" fill="blue" opacity="1" tooltip="enable"><title>(3.69768,1)</title></rect><rect x="570" y="199.877" width="6" height="0.123381" stroke="black" stroke-width="1" fill="blue" opacity="1" tooltip="enable"><title>(3.73702,3)</title></rect><rect x="576" y="200" width="6" height="0" stroke="black" stroke-width="1" fill="blue" opacity="1" tooltip="enable"><title>(3.77635,0)</title></rect><rect x="582" y="200" width="6" height="0" stroke="black" stroke-width="1" fill="blue" opacity="1" tooltip="enable"><title>(3.81569,0)</title></rect><rect x="588" y="199.959" width="6" height="0.0411269" stroke="black" stroke-width="1" fill="blue" opacity="1" tooltip="enable"><title>(3.85503,1)</title></rect><rect x="594" y="199.959" width="6" height="0.0411269" stroke="black" stroke-width="1" fill="blue" opacity="1" tooltip="enable"><title>(3.89437,1)</title></rect><text x="30" y="240" font-size="20" fill="black">0</text>
<text x="600" y="240" font-size="20" fill="black">3.9337</text>
<polyline points="0,220,600,220" stroke="black" stroke-width="1" fill="none" opacity="1"/>
<text x="720" y="20" font-size="20" fill="black">4863</text>
<text x="720" y="200" font-size="20" fill="black">0</text>
<polyline points="660,0,660,200" stroke="black" stroke-width="1" fill="none" opacity="1"/>
</svg>